<?xml version="1.0" encoding="UTF-8" standalone="no"?>
<svg
   xmlns:dc="http://purl.org/dc/elements/1.1/"
   xmlns:cc="http://creativecommons.org/ns#"
   xmlns:rdf="http://www.w3.org/1999/02/22-rdf-syntax-ns#"
   xmlns:svg="http://www.w3.org/2000/svg"
   xmlns="http://www.w3.org/2000/svg"
   xmlns:sodipodi="http://sodipodi.sourceforge.net/DTD/sodipodi-0.dtd"
   xmlns:inkscape="http://www.inkscape.org/namespaces/inkscape"
   sodipodi:docname="leaderboard_button_pressed_dark.svg"
   width="50"
   height="50"
   viewBox="0 0 13.229167 13.229167"
   version="1.1"
   id="svg8"
   inkscape:export-filename="C:\Users\Nutzer\PycharmProjects\Minesweeper\assets\img\buttons\leaderboard_button_pressed_dark.png"
   inkscape:export-xdpi="96"
   inkscape:export-ydpi="96"
   inkscape:version="1.0 (4035a4fb49, 2020-05-01)">
  <defs
     id="defs2" />
  <sodipodi:namedview
     id="base"
     pagecolor="#ffffff"
     bordercolor="#666666"
     borderopacity="1.0"
     inkscape:pageopacity="0.0"
     inkscape:pageshadow="2"
     inkscape:zoom="16.1"
     inkscape:cx="25"
     inkscape:cy="25.124224"
     inkscape:document-units="mm"
     inkscape:current-layer="layer1"
     inkscape:document-rotation="0"
     showgrid="true"
     inkscape:showpageshadow="false"
     units="px"
     gridtolerance="1"
     inkscape:window-width="1920"
     inkscape:window-height="1051"
     inkscape:window-x="-9"
     inkscape:window-y="-9"
     inkscape:window-maximized="1">
    <inkscape:grid
       type="xygrid"
       id="grid833" />
  </sodipodi:namedview>
  <metadata
     id="metadata5">
    <rdf:RDF>
      <cc:Work
         rdf:about="">
        <dc:format>image/svg+xml</dc:format>
        <dc:type
           rdf:resource="http://purl.org/dc/dcmitype/StillImage" />
        <dc:title></dc:title>
      </cc:Work>
    </rdf:RDF>
  </metadata>
  <g
     inkscape:label="Layer 1"
     inkscape:groupmode="layer"
     id="layer1">
    <path
       style="fill:#f0f0f0;fill-opacity:1;stroke:none;stroke-width:0.0501456"
       d="M 3.7291946,1.7286843 3.9788061,2.9879367 H 1.9819102 c 0,1.6258706 0.28441,2.4839214 1.2258036,3.4337573 0.4613474,0.3667938 1.882787,0.9498355 1.882787,0.9498355 0,0 0.4706966,1.4247538 2.0334156,1.8119273 V 10.2916 H 5.3766339 v 1.208883 H 9.7698043 V 10.2916 H 8.0724426 V 9.1834568 C 9.5836033,8.7902585 10.030356,7.3631691 10.030356,7.3631691 c 0,0 1.508768,-0.5539548 1.911505,-0.9528127 1.156401,-1.1452625 1.272588,-1.763597 1.272588,-3.4224197 H 11.217553 L 11.467165,1.7286843 H 3.7291946 M 4.619804,5.946776 C 3.6454501,5.5311876 3.1155585,5.008382 2.980359,3.9953377 L 4.1491072,4.0471057 4.3482177,4.7508863 4.619804,5.9467772 M 12.216,3.9953345 C 12.081257,5.0050438 11.475204,5.5961751 10.504165,6.0108928 L 10.848126,4.7508856 11.047268,4.0471049 12.216,3.9953369 M 9.4699607,6.6145833 C 9.2330783,7.6207762 8.5822497,8.4776208 7.5732176,8.4782759 V 7.7730951 C 8.22121,7.684998 8.5078443,7.262896 8.6933561,6.6145833 h 0.7766046"
       id="path851"
       sodipodi:nodetypes="ccccccccccccccsccccccccccccccccccc" />
    <rect
       style="fill:#003c78;fill-rule:evenodd;stroke-width:0.264583;fill-opacity:1"
       id="rect855"
       width="1.3229166"
       height="13.229166"
       x="0"
       y="0" />
  </g>
</svg>
