<?xml version="1.0" encoding="UTF-8" standalone="no"?>
<svg
   xmlns:dc="http://purl.org/dc/elements/1.1/"
   xmlns:cc="http://creativecommons.org/ns#"
   xmlns:rdf="http://www.w3.org/1999/02/22-rdf-syntax-ns#"
   xmlns:svg="http://www.w3.org/2000/svg"
   xmlns="http://www.w3.org/2000/svg"
   xmlns:sodipodi="http://sodipodi.sourceforge.net/DTD/sodipodi-0.dtd"
   xmlns:inkscape="http://www.inkscape.org/namespaces/inkscape"
   inkscape:version="1.0 (4035a4fb49, 2020-05-01)"
   inkscape:export-ydpi="96"
   inkscape:export-xdpi="96"
   inkscape:export-filename="C:\Users\Nutzer\PycharmProjects\Minesweeper\assets\img\buttons\leaderboard_button_pressed_light.png"
   id="svg8"
   version="1.1"
   viewBox="0 0 13.229167 13.229167"
   height="50"
   width="50">
  <defs
     id="defs2" />
  <sodipodi:namedview
     inkscape:window-maximized="1"
     inkscape:window-y="-9"
     inkscape:window-x="-9"
     inkscape:window-height="1051"
     inkscape:window-width="1920"
     gridtolerance="1"
     units="px"
     inkscape:showpageshadow="false"
     showgrid="true"
     inkscape:document-rotation="0"
     inkscape:current-layer="layer1"
     inkscape:document-units="mm"
     inkscape:cy="32.078845"
     inkscape:cx="3.7670408"
     inkscape:zoom="8.09"
     inkscape:pageshadow="2"
     inkscape:pageopacity="0.0"
     borderopacity="1.0"
     bordercolor="#666666"
     pagecolor="#ffffff"
     id="base">
    <inkscape:grid
       id="grid833"
       type="xygrid" />
  </sodipodi:namedview>
  <metadata
     id="metadata5">
    <rdf:RDF>
      <cc:Work
         rdf:about="">
        <dc:format>image/svg+xml</dc:format>
        <dc:type
           rdf:resource="http://purl.org/dc/dcmitype/StillImage" />
        <dc:title></dc:title>
      </cc:Work>
    </rdf:RDF>
  </metadata>
  <g
     id="layer1"
     inkscape:groupmode="layer"
     inkscape:label="Layer 1">
    <path
       sodipodi:nodetypes="ccccccccccccccsccccccccccccccccccc"
       id="path851"
       d="M 2.5257947,1.4270387 2.7903775,2.7618191 H 0.6737108 c 0,1.7233879 0.30146849,2.6329034 1.2993255,3.639709 0.4890183,0.3887936 1.9957137,1.0068052 1.9957137,1.0068052 0,0 0.4989283,1.5102084 2.1553769,1.920604 V 10.503545 H 4.272045 v 1.28139 h 4.6566662 v -1.28139 H 7.1295443 V 9.3289373 C 8.7313422,8.9121556 9.2048901,7.3994715 9.2048901,7.3994715 c 0,0 1.5992619,-0.5871802 2.0261549,-1.009961 1.22576,-1.2139537 1.348916,-1.8693749 1.348916,-3.6276914 H 10.463294 L 10.727877,1.4270387 H 2.5257947 M 3.4698215,5.8981252 C 2.4370274,5.4576105 1.8753536,4.9034477 1.7320451,3.8296426 l 1.238848,0.054873 0.2110528,0.7459924 0.2878756,1.2676186 M 11.521626,3.8296392 C 11.378802,4.8999093 10.736399,5.5264958 9.7071177,5.9660877 L 10.071709,4.6305071 10.282795,3.8845147 11.521626,3.8296417 M 8.6108834,6.6059866 C 8.3597932,7.6725295 7.6699288,8.5807663 6.6003765,8.5814607 V 7.8339842 c 0.686858,-0.093381 0.9906842,-0.5408 1.1873227,-1.2279976 h 0.8231842"
       style="fill:#191919;stroke:none;stroke-width:0.0531533;fill-opacity:1" />
  </g>
</svg>
