<?xml version="1.0" encoding="UTF-8" standalone="no"?>
<svg
   xmlns:dc="http://purl.org/dc/elements/1.1/"
   xmlns:cc="http://creativecommons.org/ns#"
   xmlns:rdf="http://www.w3.org/1999/02/22-rdf-syntax-ns#"
   xmlns:svg="http://www.w3.org/2000/svg"
   xmlns="http://www.w3.org/2000/svg"
   xmlns:sodipodi="http://sodipodi.sourceforge.net/DTD/sodipodi-0.dtd"
   xmlns:inkscape="http://www.inkscape.org/namespaces/inkscape"
   inkscape:version="1.0 (4035a4fb49, 2020-05-01)"
   inkscape:export-ydpi="96"
   inkscape:export-xdpi="96"
   inkscape:export-filename="C:\Users\Nutzer\PycharmProjects\Minesweeper\assets\img\buttons\return_button_normal_dark.png"
   height="50"
   width="50"
   sodipodi:docname="return_button_pressed_dark.svg"
   xml:space="preserve"
   viewBox="0 0 50 50"
   y="0px"
   x="0px"
   id="Capa_1"
   version="1.1"><metadata
   id="metadata39"><rdf:RDF><cc:Work
       rdf:about=""><dc:format>image/svg+xml</dc:format><dc:type
         rdf:resource="http://purl.org/dc/dcmitype/StillImage" /><dc:title></dc:title></cc:Work></rdf:RDF></metadata><defs
   id="defs37" /><sodipodi:namedview
   inkscape:current-layer="Capa_1"
   inkscape:window-maximized="1"
   inkscape:window-y="-9"
   inkscape:window-x="-9"
   inkscape:cy="25"
   inkscape:cx="12.855377"
   inkscape:zoom="16.18"
   inkscape:showpageshadow="false"
   inkscape:pagecheckerboard="true"
   showgrid="true"
   id="namedview35"
   inkscape:window-height="1051"
   inkscape:window-width="1920"
   inkscape:pageshadow="2"
   inkscape:pageopacity="0"
   guidetolerance="10"
   gridtolerance="1"
   objecttolerance="10"
   borderopacity="1"
   bordercolor="#666666"
   pagecolor="#ffffff"><inkscape:grid
     id="grid41"
     type="xygrid" /></sodipodi:namedview>
<path
   style="fill:#f0f0f0;fill-opacity:1;stroke-width:0.205696"
   id="path2"
   d="M 38.87688,18.19382 H 13.772516 l 5.136228,-5.136226 c 0.723021,-0.723022 0.723021,-1.895077 0,-2.618098 -0.723227,-0.7232269 -1.895077,-0.7230219 -2.618304,0 l -8.2963336,8.296745 c -0.7230211,0.72302 -0.7230211,1.895077 0,2.618098 l 8.2963336,8.296333 c 0.361614,0.361614 0.83533,0.542215 1.309049,0.542215 0.473717,0 0.947435,-0.180808 1.309048,-0.542215 0.723021,-0.723021 0.723021,-1.895076 0,-2.618098 l -5.136228,-5.136228 h 25.104366 c 4.007573,0 7.26806,3.260487 7.26806,7.268061 0,4.007573 -3.260487,7.26806 -7.26806,7.26806 H 23.605398 c -1.022514,0 -1.851263,0.828748 -1.851263,1.851263 0,1.022514 0.828749,1.851263 1.851263,1.851263 h 15.271277 c 6.049105,0 10.970586,-4.921481 10.970586,-10.970586 0,-6.049106 -4.921275,-10.970587 -10.970381,-10.970587 z" />
<g
   id="g4">
</g>
<g
   id="g6">
</g>
<g
   id="g8">
</g>
<g
   id="g10">
</g>
<g
   id="g12">
</g>
<g
   id="g14">
</g>
<g
   id="g16">
</g>
<g
   id="g18">
</g>
<g
   id="g20">
</g>
<g
   id="g22">
</g>
<g
   id="g24">
</g>
<g
   id="g26">
</g>
<g
   id="g28">
</g>
<g
   id="g30">
</g>
<g
   id="g32">
</g>
<rect
   style="fill:#003c78;fill-opacity:1;fill-rule:evenodd;stroke-width:0.999999"
   id="rect855"
   width="5"
   height="50"
   x="0"
   y="-2.3841858e-07" /></svg>
