<?xml version="1.0" encoding="UTF-8" standalone="no"?>
<svg
   xmlns:dc="http://purl.org/dc/elements/1.1/"
   xmlns:cc="http://creativecommons.org/ns#"
   xmlns:rdf="http://www.w3.org/1999/02/22-rdf-syntax-ns#"
   xmlns:svg="http://www.w3.org/2000/svg"
   xmlns="http://www.w3.org/2000/svg"
   xmlns:sodipodi="http://sodipodi.sourceforge.net/DTD/sodipodi-0.dtd"
   xmlns:inkscape="http://www.inkscape.org/namespaces/inkscape"
   inkscape:version="1.0 (4035a4fb49, 2020-05-01)"
   height="50"
   width="50"
   sodipodi:docname="return_button_normal_light.svg"
   xml:space="preserve"
   viewBox="0 0 50 50"
   y="0px"
   x="0px"
   id="Capa_1"
   version="1.1"><metadata
   id="metadata39"><rdf:RDF><cc:Work
       rdf:about=""><dc:format>image/svg+xml</dc:format><dc:type
         rdf:resource="http://purl.org/dc/dcmitype/StillImage" /><dc:title></dc:title></cc:Work></rdf:RDF></metadata><defs
   id="defs37" /><sodipodi:namedview
   inkscape:current-layer="Capa_1"
   inkscape:window-maximized="1"
   inkscape:window-y="-9"
   inkscape:window-x="-9"
   inkscape:cy="25"
   inkscape:cx="13.102596"
   inkscape:zoom="16.18"
   inkscape:showpageshadow="false"
   inkscape:pagecheckerboard="true"
   showgrid="true"
   id="namedview35"
   inkscape:window-height="1051"
   inkscape:window-width="1920"
   inkscape:pageshadow="2"
   inkscape:pageopacity="0"
   guidetolerance="10"
   gridtolerance="1"
   objecttolerance="10"
   borderopacity="1"
   bordercolor="#666666"
   pagecolor="#ffffff"><inkscape:grid
     id="grid41"
     type="xygrid" /></sodipodi:namedview>
<path
   style="stroke-width:0.217919;fill:#191919;fill-opacity:1"
   id="path2"
   d="M 35.876391,17.730532 H 9.2802076 l 5.4414464,-5.441445 c 0.765986,-0.765987 0.765986,-2.007691 0,-2.773678 -0.766204,-0.7662044 -2.007691,-0.7659865 -2.773895,0 l -8.7893414,8.789777 c -0.7659864,0.765986 -0.7659864,2.007691 0,2.773678 l 8.7893414,8.78934 c 0.383102,0.383102 0.884969,0.574435 1.386838,0.574435 0.501868,0 1.003736,-0.191551 1.386838,-0.574435 0.765987,-0.765986 0.765987,-2.007691 0,-2.773678 L 9.2799896,21.65308 H 35.876173 c 4.245722,0 7.699962,3.45424 7.699962,7.699962 0,4.245722 -3.45424,7.699962 -7.699962,7.699962 H 19.697406 c -1.083277,0 -1.961274,0.877997 -1.961274,1.961274 0,1.083277 0.877997,1.961274 1.961274,1.961274 h 16.178767 c 6.408572,0 11.62251,-5.213938 11.62251,-11.62251 0,-6.408571 -5.21372,-11.62251 -11.622292,-11.62251 z" />
<g
   id="g4">
</g>
<g
   id="g6">
</g>
<g
   id="g8">
</g>
<g
   id="g10">
</g>
<g
   id="g12">
</g>
<g
   id="g14">
</g>
<g
   id="g16">
</g>
<g
   id="g18">
</g>
<g
   id="g20">
</g>
<g
   id="g22">
</g>
<g
   id="g24">
</g>
<g
   id="g26">
</g>
<g
   id="g28">
</g>
<g
   id="g30">
</g>
<g
   id="g32">
</g>
</svg>
