<?xml version="1.0" encoding="UTF-8" standalone="no"?>
<svg
   xmlns:dc="http://purl.org/dc/elements/1.1/"
   xmlns:cc="http://creativecommons.org/ns#"
   xmlns:rdf="http://www.w3.org/1999/02/22-rdf-syntax-ns#"
   xmlns:svg="http://www.w3.org/2000/svg"
   xmlns="http://www.w3.org/2000/svg"
   xmlns:sodipodi="http://sodipodi.sourceforge.net/DTD/sodipodi-0.dtd"
   xmlns:inkscape="http://www.inkscape.org/namespaces/inkscape"
   inkscape:export-ydpi="96"
   inkscape:export-xdpi="96"
   inkscape:export-filename="C:\Users\Nutzer\PycharmProjects\Minesweeper\assets\img\buttons\svg's\settings_button_normal_light.png"
   inkscape:version="1.0 (4035a4fb49, 2020-05-01)"
   sodipodi:docname="settings_button_normal_dark.svg"
   id="svg6"
   viewBox="0 0 50 50"
   height="50"
   width="50"
   version="1.1">
  <metadata
     id="metadata12">
    <rdf:RDF>
      <cc:Work
         rdf:about="">
        <dc:format>image/svg+xml</dc:format>
        <dc:type
           rdf:resource="http://purl.org/dc/dcmitype/StillImage" />
        <dc:title></dc:title>
      </cc:Work>
    </rdf:RDF>
  </metadata>
  <defs
     id="defs10" />
  <sodipodi:namedview
     inkscape:showpageshadow="false"
     inkscape:pagecheckerboard="true"
     inkscape:current-layer="svg6"
     inkscape:window-maximized="1"
     inkscape:window-y="-9"
     inkscape:window-x="-9"
     inkscape:cy="25"
     inkscape:cx="12.855377"
     inkscape:zoom="16.18"
     showgrid="true"
     id="namedview8"
     inkscape:window-height="1051"
     inkscape:window-width="1920"
     inkscape:pageshadow="2"
     inkscape:pageopacity="0"
     guidetolerance="10"
     gridtolerance="10"
     objecttolerance="10"
     borderopacity="1"
     bordercolor="#666666"
     pagecolor="#ffffff">
    <inkscape:grid
       id="grid837"
       type="xygrid" />
  </sodipodi:namedview>
  <g
     id="g2" />
  <path
     style="stroke-width:0.093464;fill:#f0f0f0;fill-opacity:1"
     id="path4"
     fill="#000000"
     d="m 47.171488,22.72417 c 0,-0.556112 -0.461246,-1.013525 -1.015487,-1.013525 h -1.857692 c -0.560784,0 -1.15129,-0.434514 -1.30644,-0.970437 l -2.529605,-5.906087 c -0.268896,-0.482367 -0.180853,-1.202975 0.213472,-1.599263 l 1.257652,-1.255689 c 0.394325,-0.394325 0.394325,-1.041283 0,-1.434674 L 38.907116,7.517288 c -0.392456,-0.397128 -1.037451,-0.397128 -1.445141,0 l -1.359061,1.36766 C 35.704757,9.281235 34.975457,9.390214 34.484491,9.130945 L 29.346024,7.079035 C 28.809073,6.926876 28.368857,6.342071 28.368857,5.786054 V 3.881443 c 0,-0.55798 -0.456571,-1.011561 -1.009692,-1.011561 h -4.289532 c -0.555083,0 -1.011562,0.453674 -1.011562,1.011561 v 1.904611 c 0,0.556111 -0.440215,1.144654 -0.968568,1.310272 L 15.129862,9.645932 C 14.652261,9.927259 13.940251,9.833514 13.542095,9.43919 L 12.206026,8.103121 c -0.392362,-0.391427 -1.036516,-0.391427 -1.43271,0 L 7.744239,11.13416 c -0.400119,0.39526 -0.400119,1.042218 0,1.435608 l 1.452805,1.460469 c 0.400961,0.392362 0.510127,1.113998 0.252727,1.611694 L 7.42562,20.733572 C 7.276358,21.27529 6.692488,21.710739 6.133573,21.710739 h -2.02331 c -0.553213,0 -1.008757,0.457413 -1.008757,1.013524 v 4.285794 c 0,0.558915 0.455544,1.017356 1.008757,1.017356 h 2.022282 c 0.558915,0 1.14372,0.431617 1.30831,0.968568 l 2.484555,5.860196 c 0.286187,0.482368 0.188517,1.198209 -0.197116,1.594497 l -1.39439,1.384857 c -0.39526,0.396287 -0.39526,1.035488 0,1.435607 l 3.031039,3.028142 c 0.397129,0.392456 1.043246,0.392456 1.429906,0 l 1.489163,-1.482527 c 0.397222,-0.394325 1.11026,-0.502462 1.607862,-0.235436 l 5.198844,2.073033 c 0.528353,0.153188 0.968568,0.736964 0.968568,1.292047 v 1.98312 c 0,0.556952 0.456572,1.013524 1.011562,1.013524 h 4.289532 c 0.553121,0 1.009692,-0.456572 1.009692,-1.013524 V 43.94649 c 0,-0.555083 0.435449,-1.137924 0.977167,-1.302608 l 5.811408,-2.465395 c 0.482368,-0.270859 1.190545,-0.176086 1.592534,0.215341 l 1.310272,1.315974 c 0.394325,0.392456 1.037451,0.392456 1.435608,0 l 3.030104,-3.031973 c 0.396288,-0.392456 0.396288,-1.039321 0,-1.433646 l -1.400184,-1.39252 C 40.742283,35.455375 40.633117,34.733739 40.893507,34.239969 L 43,29 c 0.147393,-0.539848 0.737899,-0.9724 1.298777,-0.976232 h 1.857691 c 0.55312,0 1.015487,-0.458441 1.015487,-1.013524 V 22.72445 Z m -22.03172,9.387903 c -3.986148,0 -7.205798,-3.228155 -7.205798,-7.206733 0,-3.979512 3.219556,-7.201966 7.205798,-7.201966 3.974652,0 7.204863,3.222454 7.204863,7.201966 0,3.978484 -3.230117,7.206733 -7.204863,7.206733 z" />
</svg>
