<?xml version="1.0" encoding="UTF-8" standalone="no"?>
<svg
   xmlns:dc="http://purl.org/dc/elements/1.1/"
   xmlns:cc="http://creativecommons.org/ns#"
   xmlns:rdf="http://www.w3.org/1999/02/22-rdf-syntax-ns#"
   xmlns:svg="http://www.w3.org/2000/svg"
   xmlns="http://www.w3.org/2000/svg"
   xmlns:sodipodi="http://sodipodi.sourceforge.net/DTD/sodipodi-0.dtd"
   xmlns:inkscape="http://www.inkscape.org/namespaces/inkscape"
   inkscape:export-ydpi="96"
   inkscape:export-xdpi="96"
   inkscape:export-filename="C:\Users\Nutzer\PycharmProjects\Minesweeper\assets\img\buttons\svg's\settings_button_pressed_dark.png"
   inkscape:version="1.0 (4035a4fb49, 2020-05-01)"
   sodipodi:docname="settings_button_pressed_dark.svg"
   id="svg6"
   viewBox="0 0 50 50"
   height="50"
   width="50"
   version="1.1">
  <metadata
     id="metadata12">
    <rdf:RDF>
      <cc:Work
         rdf:about="">
        <dc:format>image/svg+xml</dc:format>
        <dc:type
           rdf:resource="http://purl.org/dc/dcmitype/StillImage" />
        <dc:title></dc:title>
      </cc:Work>
    </rdf:RDF>
  </metadata>
  <defs
     id="defs10" />
  <sodipodi:namedview
     inkscape:showpageshadow="false"
     inkscape:pagecheckerboard="true"
     inkscape:current-layer="svg6"
     inkscape:window-maximized="1"
     inkscape:window-y="-9"
     inkscape:window-x="-9"
     inkscape:cy="25"
     inkscape:cx="12.855377"
     inkscape:zoom="16.18"
     showgrid="true"
     id="namedview8"
     inkscape:window-height="1051"
     inkscape:window-width="1920"
     inkscape:pageshadow="2"
     inkscape:pageopacity="0"
     guidetolerance="10"
     gridtolerance="10"
     objecttolerance="10"
     borderopacity="1"
     bordercolor="#666666"
     pagecolor="#ffffff">
    <inkscape:grid
       id="grid837"
       type="xygrid" />
  </sodipodi:namedview>
  <g
     id="g2" />
  <path
     style="fill:#f0f0f0;fill-opacity:1;stroke-width:0.0911009"
     id="path4"
     fill="#000000"
     d="m 43.073946,22.933802 c 0,-0.542052 -0.449584,-0.9879 -0.989812,-0.9879 H 40.27341 C 39.726804,21.945902 39.151228,21.522373 39,21 l -2.465648,-5.756763 c -0.262098,-0.470171 -0.176281,-1.17256 0.208074,-1.558829 l 1.225855,-1.223941 c 0.384355,-0.384355 0.384355,-1.014956 0,-1.398401 L 35.018522,8.1113958 c -0.382533,-0.3870874 -1.011221,-0.3870874 -1.408603,0 l -1.3247,1.3330812 c -0.38809,0.386268 -1.098951,0.492492 -1.577504,0.239778 L 25.699164,7.6842231 C 25.175789,7.5359112 24.746703,6.9658918 24.746703,6.4239326 V 4.567476 c 0,-0.5438726 -0.445028,-0.9859857 -0.984164,-0.9859857 h -4.18108 c -0.541049,0 -0.985987,0.4422037 -0.985987,0.9859857 v 1.8564566 c 0,0.5420508 -0.429085,1.1157137 -0.944079,1.2771444 l -5.808963,2.485144 c -0.465526,0.274214 -1.159534,0.18284 -1.547624,-0.201515 L 8.9925171,8.6824171 c -0.3824419,-0.3815305 -1.0103097,-0.3815305 -1.3964868,0 L 4.6435376,11.636822 c -0.3900028,0.385267 -0.3900028,1.015868 0,1.399312 l 1.4160737,1.423544 c 0.3908235,0.382442 0.4972294,1.085832 0.2463373,1.570945 L 4.3329743,20.993532 C 4.1874861,21.521554 3.6183781,21.945993 3.0735941,21.945993 H 1.1014396 c -0.53922614,0 -0.9832526,0.445848 -0.9832526,0.987899 v 4.177436 c 0,0.544784 0.44402646,0.991635 0.9832526,0.991635 h 1.9711525 c 0.544784,0 1.1148033,0.420704 1.275232,0.944079 l 2.4217379,5.712033 c 0.2789513,0.470172 0.1837507,1.167914 -0.1921323,1.554183 l -1.3591356,1.349844 c -0.3852666,0.386267 -0.3852666,1.009307 0,1.39931 l 2.9544051,2.951581 c 0.3870884,0.382534 1.0168696,0.382534 1.3937537,0 l 1.4515121,-1.445044 c 0.387179,-0.384355 1.08219,-0.489758 1.567211,-0.229483 l 5.067401,2.02062 c 0.514995,0.149315 0.94408,0.718331 0.94408,1.25938 v 1.932981 c 0,0.542871 0.445028,0.987899 0.985986,0.987899 h 4.18108 c 0.539136,0 0.984164,-0.445028 0.984164,-0.987899 v -1.93289 c 0,-0.541049 0.424439,-1.109154 0.952461,-1.269674 l 5.664478,-2.403063 c 0.470172,-0.26401 1.160445,-0.171634 1.55227,0.209897 l 1.277144,1.282702 c 0.384356,0.382534 1.011221,0.382534 1.399312,0 l 2.953494,-2.955315 c 0.386268,-0.382534 0.386268,-1.013044 0,-1.397399 l -1.364783,-1.357313 c -0.374972,-0.386269 -0.481378,-1.08966 -0.227572,-1.570946 l 2.053235,-5.107486 c 0.143666,-0.526199 0.719243,-0.947815 1.26594,-0.95155 h 1.810723 c 0.539135,0 0.989812,-0.446851 0.989812,-0.987899 V 22.934075 Z M 21.599255,32.08435 c -3.885366,0 -7.023614,-3.146538 -7.023614,-7.024525 0,-3.878898 3.138156,-7.019878 7.023614,-7.019878 3.874161,0 7.022702,3.14098 7.022702,7.019878 0,3.877896 -3.14845,7.024525 -7.022702,7.024525 z" />
  <rect
     y="0"
     x="45"
     height="50"
     width="5"
     id="rect855"
     style="fill:#003c78;fill-opacity:1;fill-rule:evenodd;stroke-width:0.999999" />
</svg>
